<svg xmlns="http://www.w3.org/2000/svg" viewBox="0 0 32 32" width="16" height="16" style="color-scheme: light dark;">
	<path d="M11.8 6L12.4 3.4Q12.8 1.6 14.8 1.6H17.2Q19.2 1.6 19.6 3.4L20.2 6L22.6 7.4L24.8 6.8Q26.8 6.2 28 7.6L29.2 9.4Q30.2 11.2 28.6 12.6L26.6 14.6V17.4L28.6 19.4Q30.2 20.8 29.2 22.6L28 24.4Q26.8 25.8 24.8 25.2L22.6 24.4L20.2 26L19.6 28.6Q19.2 30.4 17.2 30.4H14.8Q12.8 30.4 12.4 28.6L11.8 26L9.4 24.4L7.2 25.2Q5.2 25.8 4 24.4L2.8 22.6Q1.8 21 3.4 19.4L5.4 17.4V14.6L3.4 12.6Q1.8 11.2 2.8 9.4L4 7.6Q5.2 6.2 7.2 6.8L9.4 7.4ZM16 20.8A0.2 0.2 0 0 0 16 11.2A0.2 0.2 0 0 0 16 20.8Z" fill="none" stroke="light-dark(#5B5B66, #FBFBFB)" stroke-width="2.5" stroke-linecap="round"/>
</svg>
